<svg width="58" height="59" viewBox="0 0 58 59" fill="none" xmlns="http://www.w3.org/2000/svg">
<g clip-path="url(#clip0_519_821)">
<path d="M7.70933 10.3003H36.2502V23.1932C36.2502 24.2604 35.8262 25.2838 35.0716 26.0384C34.317 26.793 33.2936 27.217 32.2264 27.217H8.85725C7.79008 27.217 6.76663 26.793 6.01203 26.0384C5.25743 25.2838 4.8335 24.2604 4.8335 23.1932V13.1761C4.8335 12.4134 5.13648 11.6819 5.67581 11.1426C6.21513 10.6033 6.94661 10.3003 7.70933 10.3003Z" stroke="#AD2F2F" stroke-width="2" stroke-linecap="round" stroke-linejoin="round"/>
<path d="M39.875 13.9256V12.7173H36.25V22.384H39.875V21.1756H43.5V13.9256H39.875Z" stroke="#AD2F2F" stroke-width="2" stroke-linecap="round" stroke-linejoin="round"/>
<path d="M45.9167 16.3423H43.5V18.759H45.9167V16.3423Z" stroke="#AD2F2F" stroke-width="2" stroke-linecap="round" stroke-linejoin="round"/>
<path d="M53.1667 17.5503H47.125" stroke="#AD2F2F" stroke-width="2" stroke-linecap="round" stroke-linejoin="round"/>
<path d="M53.1667 17.5503H47.125" stroke="#AD2F2F" stroke-width="2" stroke-linecap="round" stroke-linejoin="round"/>
<path d="M20.5415 16.3423H30.2082" stroke="#AD2F2F" stroke-width="2" stroke-linecap="round" stroke-linejoin="round"/>
<path d="M6.0415 15.1338H9.6665" stroke="#AD2F2F" stroke-width="2" stroke-linecap="round" stroke-linejoin="round"/>
<path d="M6.0415 19.9673H9.6665" stroke="#AD2F2F" stroke-width="2" stroke-linecap="round" stroke-linejoin="round"/>
<path d="M11.866 48.9673H11.2256C10.4917 48.9673 9.78788 48.6758 9.26896 48.1568C8.75003 47.6379 8.4585 46.9341 8.4585 46.2002V27.2173H15.7085L18.1252 41.6085C18.2765 42.516 18.2278 43.4456 17.9826 44.3323C17.7373 45.219 17.3015 46.0414 16.7054 46.7422C16.1093 47.443 15.3674 48.0052 14.5316 48.3895C13.6957 48.7738 12.786 48.971 11.866 48.9673V48.9673Z" stroke="#AD2F2F" stroke-width="2" stroke-linecap="round" stroke-linejoin="round"/>
<path d="M9.66683 30.8423H8.4585" stroke="#AD2F2F" stroke-width="2" stroke-linecap="round" stroke-linejoin="round"/>
<path d="M9.66683 34.4673H8.4585" stroke="#AD2F2F" stroke-width="2" stroke-linecap="round" stroke-linejoin="round"/>
<path d="M9.66683 38.0923H8.4585" stroke="#AD2F2F" stroke-width="2" stroke-linecap="round" stroke-linejoin="round"/>
<path d="M9.66683 41.7173H8.4585" stroke="#AD2F2F" stroke-width="2" stroke-linecap="round" stroke-linejoin="round"/>
<path d="M727.417 -93.6162H-94.25V728.051H727.417V-93.6162Z" stroke="black" stroke-width="2" stroke-linecap="round" stroke-linejoin="round"/>
</g>
<defs>
<clipPath id="clip0_519_821">
<rect width="58" height="58" fill="white" transform="translate(0 0.633789)"/>
</clipPath>
</defs>
</svg>
