<svg width="43" height="43" viewBox="0 0 43 43" fill="none" xmlns="http://www.w3.org/2000/svg">
<path d="M16.8848 18.4286L36.0209 1.0238L41.6492 6.14285" stroke="white" stroke-linecap="round" stroke-linejoin="round"/>
<path d="M41.8744 6.34763L39.9608 7.78096L39.1728 9.93096L37.2592 11.4667L36.4713 13.6167L34.5577 15.1524L33.7697 17.3024L31.8561 18.7357L30.9556 20.8857L29.0419 22.4214L28.254 24.5714L26.3404 26.1071L25.5524 28.2572L23.6388 29.6905L22.7383 31.9429" stroke="white" stroke-linecap="round" stroke-linejoin="round"/>
<path d="M22.5132 31.7381L18.0105 27.6429C17.11 26.8238 17.11 25.3905 18.0105 24.5714V19.4524L15.7592 17.4048L13.5079 19.4524L1.12573 30.7143L13.5079 41.9762L23.6388 32.7619L22.5132 31.7381Z" stroke="white" stroke-linecap="round" stroke-linejoin="round"/>
<path d="M7.87964 29.6905L14.6336 35.8333" stroke="white" stroke-linecap="round" stroke-linejoin="round"/>
</svg>
