<svg width="42" height="42" viewBox="0 0 42 42" fill="none" xmlns="http://www.w3.org/2000/svg">
<path d="M22.5 22.5L28.5 28.5C29.4 29.3 29.4 30.7 28.5 31.6C28.3 31.8 28 32 27.6 32.1L1 41L9.9 14.3C10.3 13.2 11.5 12.5 12.6 12.9C12.9 13 13.2 13.2 13.5 13.4L19.5 19.4" stroke="white" stroke-linecap="round" stroke-linejoin="round"/>
<path d="M26 19L20 25L17 22L23 16" stroke="white" stroke-linecap="round" stroke-linejoin="round"/>
<path d="M22.8999 12.8L34.6999 1L40.9999 7.3L29.1999 19.1C28.6999 19.6 27.8999 19.6 27.4999 19.1L22.8999 14.5C22.3999 14.1 22.3999 13.3 22.8999 12.8Z" stroke="white" stroke-linecap="round" stroke-linejoin="round"/>
</svg>
