<svg width="31" height="30" viewBox="0 0 31 30" fill="none" xmlns="http://www.w3.org/2000/svg">
<g clip-path="url(#clip0_417_36)">
<path d="M28.551 21.6263C28.8732 21.0989 29.0665 20.5055 29.0665 19.8461C29.0665 18.1978 27.9065 17.0109 26.2952 17.0109C25.5863 17.0109 24.9418 17.2087 24.4907 17.6703C24.104 17.1428 23.7173 16.7472 23.2017 16.3516C23.5239 15.8241 23.7173 15.2307 23.7173 14.5714C23.7173 12.923 22.5572 11.7362 20.946 11.7362C19.3347 11.7362 18.1747 12.923 18.1747 14.5714C18.1747 15.2307 18.368 15.8901 18.6902 16.3516C18.1747 16.6813 17.7235 17.1428 17.4013 17.6703C16.9501 17.2747 16.3056 17.0109 15.5967 17.0109C14.8878 17.0109 14.2433 17.2087 13.7921 17.6044C13.4054 17.0769 13.0187 16.6813 12.5031 16.2857C12.8254 15.7582 13.0187 15.1648 13.0187 14.5055C13.0187 12.8571 11.8586 11.6703 10.2474 11.6703C8.63619 11.6703 7.47611 12.8571 7.47611 14.5055C7.47611 15.1648 7.66946 15.8241 7.9917 16.2857C7.47611 16.6153 7.02497 17.0769 6.70272 17.6044C6.25158 17.2087 5.60709 16.945 4.89815 16.945C3.28692 16.945 2.12684 18.1318 2.12684 19.7802C2.12684 20.4395 2.32018 21.0329 2.64243 21.5604C1.1601 22.5494 0.257812 24.3296 0.257812 26.0439C0.257812 28.4175 2.06239 29.934 4.96259 29.934C7.8628 29.934 9.66738 28.4175 9.66738 26.0439C9.66738 25.5824 9.60293 25.0549 9.40958 24.5934C9.73183 24.6593 10.0541 24.6593 10.3763 24.6593C10.6986 24.6593 11.0208 24.6593 11.3431 24.5934C11.2142 25.0549 11.0853 25.5824 11.0853 26.0439C11.0853 28.4175 12.8898 29.934 15.79 29.934C18.6902 29.934 20.4948 28.4175 20.4948 26.0439C20.4948 25.5824 20.4304 25.0549 20.237 24.5934C20.5593 24.6593 20.8815 24.6593 21.2038 24.6593C21.526 24.6593 21.8483 24.6593 22.1705 24.5934C22.0416 25.0549 21.9127 25.5824 21.9127 26.0439C21.9127 28.4175 23.7173 29.934 26.6175 29.934C29.5177 29.934 31.3223 28.4175 31.3223 26.0439C30.9356 24.3956 30.0333 22.6153 28.551 21.6263ZM26.2952 17.934C27.3909 17.934 28.1643 18.7252 28.1643 19.7802C28.1643 20.967 27.3264 21.8901 26.2952 21.8901C25.2641 21.8901 24.4262 20.967 24.4262 19.7802C24.4262 18.7252 25.1996 17.934 26.2952 17.934ZM20.8815 12.6593C21.9771 12.6593 22.7505 13.4505 22.7505 14.5055C22.7505 15.6923 21.9127 16.6153 20.8815 16.6153C19.8503 16.6153 19.0125 15.6263 19.0125 14.5055C19.0125 13.4505 19.7859 12.6593 20.8815 12.6593ZM15.4678 17.934C16.5634 17.934 17.3368 18.7252 17.3368 19.7802C17.3368 20.967 16.499 21.8901 15.4678 21.8901C14.4366 21.8901 13.5988 20.967 13.5988 19.7802C13.6632 18.7252 14.4366 17.934 15.4678 17.934ZM10.1185 12.6593C11.2142 12.6593 11.9875 13.4505 11.9875 14.5055C11.9875 15.6923 11.1497 16.6153 10.1185 16.6153C9.08734 16.6153 8.2495 15.6263 8.2495 14.5055C8.2495 13.4505 9.02289 12.6593 10.1185 12.6593ZM4.7048 17.934C5.80043 17.934 6.57382 18.7252 6.57382 19.7802C6.57382 20.967 5.73598 21.8901 4.7048 21.8901C3.67361 21.8901 2.83578 20.967 2.83578 19.7802C2.83578 18.7252 3.60916 17.934 4.7048 17.934ZM4.7048 29.0109C3.80251 29.0109 0.966752 28.8131 0.966752 26.1098C0.966752 24.6593 1.80459 23.0769 3.09357 22.3516C3.54472 22.7472 4.12476 22.945 4.7048 22.945C5.28484 22.945 5.86488 22.7472 6.31603 22.3516C7.60501 23.1428 8.44285 24.6593 8.44285 26.1098C8.44285 28.8131 5.60709 29.0109 4.7048 29.0109ZM10.1185 23.7362C9.79628 23.7362 9.28068 23.7362 8.70064 23.5384C8.2495 22.7472 7.66946 22.0879 6.96052 21.5604C7.28276 21.0329 7.47611 20.4395 7.47611 19.7802C7.47611 19.2527 7.34721 18.7252 7.08941 18.3296C7.41166 17.8022 7.8628 17.3406 8.44285 17.0109C8.89399 17.4066 9.47403 17.6044 10.0541 17.6044C10.6341 17.6044 11.2142 17.4066 11.6653 17.0109C12.1809 17.3406 12.632 17.8022 13.0187 18.3296C12.7609 18.7252 12.632 19.2527 12.632 19.7802C12.632 20.4395 12.8254 21.0989 13.1476 21.5604C12.4387 22.0219 11.7942 22.7472 11.4075 23.5384C10.9564 23.7362 10.3763 23.7362 10.1185 23.7362ZM15.4678 29.0109C14.5655 29.0109 11.7297 28.8131 11.7297 26.1098C11.7297 24.6593 12.5676 23.0769 13.8566 22.3516C14.3077 22.7472 14.8878 22.945 15.4678 22.945C16.0478 22.945 16.6279 22.7472 17.079 22.3516C18.368 23.1428 19.2058 24.6593 19.2058 26.1098C19.2058 28.8131 16.3701 29.0109 15.4678 29.0109ZM20.8815 23.7362C20.5593 23.7362 20.0437 23.7362 19.5281 23.5384C19.0769 22.7472 18.4969 22.0879 17.788 21.5604C18.1102 21.0329 18.3036 20.4395 18.3036 19.7802C18.3036 19.2527 18.1747 18.7252 17.9169 18.3296C18.2391 17.8022 18.6902 17.3406 19.2703 17.0109C19.7214 17.4066 20.3015 17.6044 20.8815 17.6044C21.4616 17.6044 22.0416 17.4066 22.4927 17.0109C23.0083 17.3406 23.4595 17.8022 23.8462 18.3296C23.5884 18.7252 23.4595 19.2527 23.4595 19.7802C23.4595 20.4395 23.6528 21.0989 23.9751 21.5604C23.2661 22.0219 22.6216 22.7472 22.2349 23.5384C21.7194 23.7362 21.2038 23.7362 20.8815 23.7362ZM26.2952 29.0109C25.3929 29.0109 22.5572 28.8131 22.5572 26.1098C22.5572 24.6593 23.395 23.0769 24.684 22.3516C25.1352 22.7472 25.7152 22.945 26.2952 22.945C26.8753 22.945 27.4553 22.7472 27.9065 22.3516C29.1954 23.1428 30.0333 24.6593 30.0333 26.1098C30.0333 28.8131 27.1975 29.0109 26.2952 29.0109Z" fill="#1A171B" stroke="black" stroke-width="0.1" stroke-miterlimit="10"/>
<path d="M13.7921 9.95604L16.9502 12.2637C17.0146 12.3297 17.1435 12.3297 17.2079 12.3297C17.2724 12.3297 17.3368 12.3297 17.4013 12.2637C17.5302 12.1978 17.6591 12 17.6591 11.8681V9.56044C19.8504 8.83517 21.2682 7.25275 21.2682 5.40659C21.2682 3.89011 20.2371 2.50549 18.6258 1.64835L19.2059 0.725275C19.3348 0.527473 19.2703 0.197802 19.0125 0.0659341C18.8192 -0.0659341 18.4969 0 18.368 0.263736L17.7235 1.31868C16.8857 0.989011 15.919 0.857143 14.8878 0.857143C11.3431 0.857143 8.50732 2.9011 8.50732 5.47253C8.50732 7.71429 10.6986 9.56044 13.7921 9.95604ZM14.8878 1.78022C15.7256 1.78022 16.5635 1.91209 17.2724 2.17582L14.8878 6.26374L13.4055 4.41758C13.2121 4.21978 12.9543 4.15385 12.761 4.35165C12.5676 4.54945 12.5032 4.81319 12.6965 5.01099L14.63 7.38462C14.6944 7.51648 14.8233 7.58242 15.0167 7.58242C15.0167 7.58242 15.0167 7.58242 15.0811 7.58242C15.21 7.58242 15.3389 7.51648 15.4678 7.31868L18.2391 2.57143C19.5926 3.23077 20.4304 4.28571 20.4304 5.47253C20.4304 6.92308 19.1414 8.24176 17.1435 8.83517C16.9502 8.9011 16.8213 9.0989 16.8213 9.2967V11.011L14.3077 9.16483C14.2433 9.0989 14.1788 9.0989 14.1144 9.0989C11.5364 8.83517 9.53851 7.25275 9.53851 5.47253C9.47406 3.42857 11.9231 1.78022 14.8878 1.78022Z" fill="#1A171B" stroke="black" stroke-width="0.1" stroke-miterlimit="10"/>
</g>
<defs>
<clipPath id="clip0_417_36">
<rect width="31" height="30" fill="white"/>
</clipPath>
</defs>
</svg>
