<svg width="45" height="36" viewBox="0 0 45 36" fill="none" xmlns="http://www.w3.org/2000/svg">
<path d="M3.64296 1.05882H28.9287V12.3882C28.9287 14.2941 27.3215 15.8824 25.393 15.8824H4.60725C2.67868 15.8824 1.07153 14.2941 1.07153 12.3882V3.6C1.07153 2.22353 2.2501 1.05882 3.64296 1.05882Z" stroke="white" stroke-linecap="round" stroke-linejoin="round"/>
<path d="M32.1428 4.23529V3.17647H28.9285V11.6471H32.1428V10.5882H35.357V4.23529H32.1428Z" stroke="white" stroke-linecap="round" stroke-linejoin="round"/>
<path d="M37.5 6.35294H35.3572V8.47058H37.5V6.35294Z" stroke="white" stroke-linecap="round" stroke-linejoin="round"/>
<path d="M43.9287 7.41176H38.5715" stroke="white" stroke-linecap="round" stroke-linejoin="round"/>
<path d="M15 6.35294H23.5714" stroke="white" stroke-linecap="round" stroke-linejoin="round"/>
<path d="M2.14282 5.29411H5.35711" stroke="white" stroke-linecap="round" stroke-linejoin="round"/>
<path d="M2.14282 9.52942H5.35711" stroke="white" stroke-linecap="round" stroke-linejoin="round"/>
<path d="M7.28564 34.9412H6.74993C5.35707 34.9412 4.28564 33.8824 4.28564 32.5059V15.8824H10.7142L12.8571 28.4824C13.3928 31.4471 11.3571 34.3059 8.24993 34.8353C7.9285 34.9412 7.60707 34.9412 7.28564 34.9412Z" stroke="white" stroke-linecap="round" stroke-linejoin="round"/>
<path d="M5.35707 19.0588H4.28564" stroke="white" stroke-linecap="round" stroke-linejoin="round"/>
<path d="M5.35707 22.2353H4.28564" stroke="white" stroke-linecap="round" stroke-linejoin="round"/>
<path d="M5.35707 25.4118H4.28564" stroke="white" stroke-linecap="round" stroke-linejoin="round"/>
<path d="M5.35707 28.5882H4.28564" stroke="white" stroke-linecap="round" stroke-linejoin="round"/>
</svg>
