<svg width="28" height="28" viewBox="0 0 28 28" fill="none" xmlns="http://www.w3.org/2000/svg">
<g clip-path="url(#clip0_417_48)">
<path d="M21.4938 0.953187C23.1784 0.953187 24.5726 2.38297 24.5726 4.11063V9.94893C24.5726 10.1872 24.7469 10.366 24.9793 10.366C25.2116 10.366 25.3859 10.1872 25.3859 9.94893V4.11063C25.3859 1.90638 23.6432 0.0595703 21.4357 0.0595703H4.00831C1.85894 0.0595703 0.0581055 1.8468 0.0581055 4.11063V20.8511C0.0581055 21.0894 0.232379 21.2681 0.464744 21.2681C0.69711 21.2681 0.871383 21.0894 0.871383 20.8511V4.11063C0.871383 2.38297 2.26557 0.953187 3.95022 0.953187H21.4938Z" fill="#1A171B" stroke="black" stroke-width="0.2" stroke-miterlimit="10"/>
<path d="M27.942 18.3489C27.942 17.4553 27.5934 16.8 27.0706 16.4425C27.4773 16.0255 27.7677 15.3702 27.7677 14.417C27.7677 13.0468 26.7221 11.9149 25.5602 11.9149H19.1702C19.3445 11.0808 19.5768 9.59147 19.4607 7.98296C19.2283 5.18296 17.8922 3.217 16.2076 3.15743C14.6972 3.09785 14.0582 3.4553 14.0001 3.51487C13.8258 3.63402 13.7677 3.81275 13.8258 3.99147C14.0001 4.94466 14.4067 7.50636 14.1744 8.39998C13.6515 10.0085 12.4316 11.617 11.3279 12.9872C10.2242 14.417 9.35278 15.4893 9.35278 16.4425V25.5574C9.35278 25.7957 9.52706 25.9744 9.75942 25.9744C9.99179 25.9744 10.1661 25.7957 10.1661 25.5574V16.3234C10.1661 15.6681 11.0374 14.5957 11.9669 13.4042C13.1287 11.9744 14.4067 10.3064 14.9876 8.51913C15.3362 7.44679 14.9295 5.00424 14.7553 4.05104C15.0457 3.99147 15.5105 3.9319 16.2076 3.9319C17.4275 3.99147 18.4731 5.65955 18.6474 7.98296C18.8217 9.94892 18.4731 11.5574 18.2988 12.1532C18.2407 12.2723 18.2988 12.451 18.3569 12.5106C18.415 12.6298 18.5893 12.6893 18.7055 12.6893H25.6764C26.3154 12.6893 27.0706 13.4042 27.0706 14.3574C27.0706 15.5489 26.3735 16.0255 26.1993 16.0255C25.9669 16.0255 25.7926 16.2042 25.7926 16.4425C25.7926 16.6808 25.9669 16.8596 26.1993 16.8596C26.6059 16.8596 27.2449 17.3362 27.2449 18.2893C27.2449 18.8851 26.9544 19.4213 26.4897 19.7787C26.3735 19.8383 26.3154 19.9574 26.3154 20.0766C26.3154 20.1957 26.3735 20.3149 26.4316 20.434C26.7802 20.7915 26.9544 21.2681 26.9544 21.7447C26.9544 22.6383 26.3154 23.4127 25.5022 23.5915C25.386 23.5915 25.2698 23.7106 25.2117 23.8298C25.1536 23.9489 25.1536 24.1276 25.2117 24.2468C25.386 24.5447 25.4441 24.8425 25.4441 25.1404C25.4441 26.0936 24.747 26.9276 23.7594 27.0468H23.7013H22.3071C22.0748 27.0468 21.9005 27.2255 21.9005 27.4638C21.9005 27.7021 22.0748 27.8808 22.3071 27.8808H23.7013C23.7594 27.8808 23.8175 27.8808 23.8756 27.8808C25.2698 27.7617 26.3154 26.5702 26.3154 25.1404C26.3154 24.8425 26.2573 24.5447 26.1993 24.3064C27.1868 23.8893 27.8258 22.8766 27.8258 21.8042C27.8258 21.2681 27.6515 20.7319 27.3611 20.2553C27.6515 19.7787 27.942 19.0638 27.942 18.3489Z" fill="#1A171B" stroke="black" stroke-width="0.2" stroke-miterlimit="10"/>
<path d="M6.27377 15.4298H3.89202C3.19493 15.4298 2.61401 16.0256 2.61401 16.7404V25.4979C2.61401 25.7362 2.78829 25.9149 3.02065 25.9149C3.25302 25.9149 3.42729 25.7362 3.42729 25.4979V16.7404C3.42729 16.5022 3.65966 16.2639 3.89202 16.2639H6.27377C6.50613 16.2639 6.7385 16.4426 6.7385 16.7404V26.6298C6.7385 26.8681 6.50613 27.1064 6.27377 27.1064H5.11194C4.87957 27.1064 4.7053 27.2851 4.7053 27.5234C4.7053 27.7617 4.87957 27.9404 5.11194 27.9404H6.27377C6.97086 27.9404 7.55177 27.3447 7.55177 26.6298V16.7404C7.55177 16.0256 6.97086 15.4298 6.27377 15.4298Z" fill="#1A171B" stroke="black" stroke-width="0.2" stroke-miterlimit="10"/>
<path d="M5.05407 26.034C5.34453 26.034 5.57689 25.7957 5.57689 25.4978C5.57689 25.2 5.34453 24.9617 5.05407 24.9617C4.76361 24.9617 4.53125 25.2 4.53125 25.4978C4.58934 25.7957 4.76361 26.034 5.05407 26.034Z" fill="#1A171B" stroke="black" stroke-width="0.2" stroke-miterlimit="10"/>
<path d="M19.0539 27.0468H12.3153C12.083 27.0468 11.9087 27.2255 11.9087 27.4638C11.9087 27.7021 12.083 27.8808 12.3153 27.8808H19.0539C19.2863 27.8808 19.4606 27.7021 19.4606 27.4638C19.4606 27.285 19.2863 27.0468 19.0539 27.0468Z" fill="#1A171B" stroke="black" stroke-width="0.2" stroke-miterlimit="10"/>
<path d="M21.2614 16.0255C21.0872 15.9064 20.7967 15.9659 20.6805 16.2042L19.6349 18.051C18.9378 17.4553 18.0664 17.0979 17.0789 17.0979C14.8714 17.0979 13.0706 18.9447 13.0706 21.2085C13.0706 23.4723 14.8714 25.3191 17.0789 25.3191C19.2863 25.3191 21.0872 23.4723 21.0872 21.2085C21.0872 20.2553 20.7386 19.3617 20.2158 18.6468L21.3776 16.6213C21.4938 16.383 21.4357 16.1447 21.2614 16.0255ZM20.2739 21.1489C20.2739 22.9362 18.8797 24.4255 17.0789 24.4255C15.3361 24.4255 13.8838 22.9957 13.8838 21.1489C13.8838 19.3617 15.278 17.8723 17.0789 17.8723C17.8921 17.8723 18.6473 18.1702 19.1701 18.7064L17.4274 21.8042L16.0332 19.5404C15.917 19.3617 15.6266 19.3021 15.4523 19.4213C15.278 19.5404 15.2199 19.8383 15.3361 20.017L17.0789 22.8766C17.1369 22.9957 17.3112 23.0553 17.4274 23.0553C17.6017 23.0553 17.7179 22.9957 17.776 22.817L19.7511 19.3617C20.0996 19.9574 20.2739 20.5532 20.2739 21.1489Z" fill="#1A171B" stroke="black" stroke-width="0.2" stroke-miterlimit="10"/>
</g>
<defs>
<clipPath id="clip0_417_48">
<rect width="28" height="28" fill="white"/>
</clipPath>
</defs>
</svg>
