<svg width="68" height="68" viewBox="0 0 68 68" fill="none" xmlns="http://www.w3.org/2000/svg">
<g clip-path="url(#clip0_441_892)">
<path d="M61.7667 49.3L45.1917 32.725L53.1251 24.7917C57.2334 25.6417 61.3417 24.3667 64.3167 21.3917C67.7167 17.9917 68.8501 12.8917 67.2917 8.35833C67.1501 8.075 66.8667 7.79167 66.5834 7.65C66.3001 7.50833 65.8751 7.65 65.5917 7.93333L57.3751 16.15C54.8251 15.3 52.7001 13.3167 51.8501 10.625L60.0667 2.40833C60.3501 2.125 60.3501 1.84167 60.3501 1.41667C60.3501 0.991667 60.0667 0.85 59.6417 0.708333C55.1084 -0.85 50.0084 0.283333 46.6084 3.68333C43.6334 6.65833 42.3584 10.7667 43.2084 14.875L35.2751 22.8083L18.2751 5.80833C18.1334 5.66667 17.9917 5.66667 17.9917 5.66667L1.41672 0C0.991719 0 0.566719 0 0.283385 0.283333C5.21094e-05 0.566667 5.21019e-05 0.991667 5.21019e-05 1.41667L5.52505 17.9917C5.52505 17.9917 5.52505 18.1333 5.66672 18.1333C5.66672 18.1333 5.66672 18.1333 5.66672 18.275L22.6667 35.275L14.7334 43.2083C10.6251 42.3583 6.51672 43.6333 3.54172 46.6083C0.141719 50.0083 -0.991615 55.1083 0.566719 59.6417C0.708386 59.925 0.991719 60.2083 1.27505 60.35C1.55839 60.4917 1.98339 60.35 2.26672 60.0667L10.4834 51.85C13.0334 52.7 15.1584 54.6833 16.0084 57.375L7.79172 65.5917C7.50839 65.875 7.50839 66.1583 7.50839 66.5833C7.65005 66.8667 7.79172 67.15 8.21672 67.2917C9.63339 67.7167 11.0501 68 12.4667 68C15.7251 68 18.9834 66.725 21.3917 64.3167C24.3667 61.3417 25.6417 57.2333 24.7917 53.125L32.7251 45.1917L49.3001 61.7667L55.2501 67.7167C55.3917 67.8583 55.6751 68 55.9584 68C56.1001 68 56.2417 68 56.2417 68C61.9084 66.1583 66.0167 62.05 67.8584 56.3833C68.0001 55.9583 67.8584 55.675 67.5751 55.3917L61.7667 49.3ZM59.5001 51C59.3584 51.2833 59.3584 51.5667 59.2167 51.7083C59.0751 51.9917 58.9334 52.4167 58.6501 52.7C58.5084 52.9833 58.3667 53.125 58.2251 53.4083C58.0834 53.6917 57.8001 54.1167 57.5167 54.4C57.3751 54.5417 57.2334 54.6833 57.2334 54.825C57.0917 54.9667 56.9501 55.25 56.8084 55.3917L14.8751 13.3167C15.0167 13.0333 15.3001 12.8917 15.4417 12.6083C15.5834 12.4667 15.7251 12.325 15.8667 12.0417C16.1501 11.6167 16.4334 11.3333 16.5751 10.9083C16.7167 10.7667 16.8584 10.4833 17.0001 10.3417C17.2834 9.91667 17.4251 9.63333 17.5667 9.20833C17.7084 9.06667 17.7084 8.78333 17.8501 8.64167C17.8501 8.5 17.9917 8.5 17.9917 8.35833L59.7834 50.15C59.7834 50.4333 59.6417 50.7167 59.5001 51ZM10.9084 14.1667C10.6251 14.45 10.2001 14.5917 9.91672 14.875C9.77505 15.0167 9.49172 15.1583 9.35005 15.1583C9.06672 15.3 8.64172 15.5833 8.35839 15.725C8.07505 15.8667 7.93339 15.8667 7.65005 16.0083C7.50839 16.0083 7.36672 16.15 7.08339 16.15L5.24172 10.4833C7.65005 9.49167 9.49172 7.50833 10.4834 5.24167L16.1501 7.08333C16.1501 7.225 16.0084 7.36667 16.0084 7.65C15.8667 7.93333 15.8667 8.075 15.7251 8.35833C15.5834 8.64167 15.4417 9.06667 15.1584 9.35C15.0167 9.49167 14.8751 9.775 14.8751 9.91667C14.7334 10.2 14.4501 10.625 14.1667 10.9083C14.0251 11.05 14.0251 11.1917 13.8834 11.3333C13.4584 11.9 13.1751 12.325 12.7501 12.6083C12.3251 13.175 11.9001 13.4583 11.3334 13.8833C11.1917 14.025 11.0501 14.025 10.9084 14.1667ZM45.0501 15.8667C45.3334 15.5833 45.4751 15.3 45.3334 14.875C44.4834 11.3333 45.4751 7.65 48.0251 4.95833C50.4334 2.55 53.9751 1.41667 57.2334 2.125L49.8667 9.49167C49.5834 9.775 49.4417 10.0583 49.5834 10.4833C50.5751 14.3083 53.4084 17.2833 57.2334 18.1333C57.5167 18.275 57.9417 18.1333 58.2251 17.85L65.5917 10.4833C66.1584 13.8833 65.1667 17.2833 62.7584 19.6917C60.2084 22.2417 56.5251 23.375 52.8417 22.3833C52.5584 22.2417 52.1334 22.3833 51.8501 22.6667L43.4917 31.025L36.5501 24.0833L45.0501 15.8667ZM8.64172 4.675C7.79172 6.375 6.37505 7.79167 4.67505 8.64167L2.69172 2.69167L8.64172 4.675ZM8.64172 17.85C8.92505 17.7083 9.06672 17.7083 9.20839 17.5667C9.63339 17.425 10.0584 17.1417 10.3417 17C10.4834 16.8583 10.7667 16.7167 10.9084 16.575C11.3334 16.2917 11.6167 16.15 12.0417 15.8667C12.3251 15.725 12.6084 15.5833 12.7501 15.4417C13.0334 15.3 13.1751 15.0167 13.4584 14.875L55.3917 56.8083C55.2501 56.95 54.9667 57.0917 54.8251 57.2333C54.6834 57.375 54.5417 57.5167 54.2584 57.6583C53.9751 57.9417 53.6917 58.0833 53.2667 58.3667C53.1251 58.5083 52.8417 58.65 52.5584 58.7917C52.2751 58.9333 51.9917 59.075 51.5667 59.3583C51.2834 59.5 51.0001 59.6417 50.8584 59.6417C50.5751 59.7833 50.4334 59.7833 50.1501 59.925L8.35839 17.9917C8.50005 17.9917 8.64172 17.85 8.64172 17.85ZM22.9501 52.1333C22.6667 52.4167 22.5251 52.7 22.6667 53.125C23.5167 56.6667 22.5251 60.35 19.9751 63.0417C17.5667 65.45 14.0251 66.5833 10.7667 65.875L18.1334 58.5083C18.4167 58.225 18.5584 57.9417 18.4167 57.5167C17.4251 53.6917 14.5917 50.7167 10.7667 49.8667C10.4834 49.725 10.0584 49.8667 9.77505 50.15L2.40839 57.5167C1.84172 54.1167 2.83339 50.7167 5.24172 48.3083C7.79172 45.7583 11.4751 44.625 15.1584 45.6167C15.4417 45.7583 15.8667 45.6167 16.1501 45.3333L24.5084 36.975L31.4501 43.9167L22.9501 52.1333ZM56.2417 65.7333L51.8501 61.3417C51.9917 61.3417 51.9917 61.2 52.1334 61.2C52.2751 61.0583 52.5584 61.0583 52.7001 60.9167C53.1251 60.775 53.5501 60.4917 53.8334 60.35C53.9751 60.2083 54.2584 60.0667 54.4001 59.925C54.8251 59.6417 55.1084 59.3583 55.5334 59.2167C55.6751 59.075 55.8167 58.9333 55.9584 58.7917C56.9501 57.9417 57.9417 57.0917 58.6501 56.1C58.7917 55.9583 58.9334 55.8167 59.0751 55.675C59.3584 55.25 59.6417 54.9667 59.7834 54.5417C59.9251 54.4 60.0667 54.1167 60.2084 53.975C60.4917 53.55 60.6334 53.125 60.7751 52.8417C60.9167 52.7 60.9167 52.4167 61.0584 52.275C61.0584 52.1333 61.2001 52.1333 61.2001 51.9917L65.5917 56.3833C64.1751 60.775 60.7751 64.175 56.2417 65.7333Z" fill="#AD2F2F"/>
<path d="M0.991667 26.6334H7.08333C7.65 26.6334 8.075 26.2084 8.075 25.6417C8.075 25.075 7.65 24.65 7.08333 24.65H0.991667C0.425 24.65 0 25.075 0 25.6417C0 26.2084 0.425 26.6334 0.991667 26.6334Z" fill="#AD2F2F"/>
<path d="M0.991667 32.8667H12.1833C12.75 32.8667 13.175 32.4417 13.175 31.875C13.175 31.3084 12.75 30.7417 12.1833 30.7417H0.991667C0.425 30.7417 0 31.1667 0 31.7334C0 32.3 0.425 32.8667 0.991667 32.8667Z" fill="#AD2F2F"/>
<path d="M9.2085 37.9666C9.2085 38.5333 9.6335 38.9583 10.2002 38.9583H15.1585C15.7252 38.9583 16.1502 38.5333 16.1502 37.9666C16.1502 37.4 15.7252 36.975 15.1585 36.975H10.3418C9.77516 36.975 9.2085 37.4 9.2085 37.9666Z" fill="#AD2F2F"/>
<path d="M0.991667 38.9583H4.95833C5.525 38.9583 5.95 38.5333 5.95 37.9666C5.95 37.4 5.525 36.975 4.95833 36.975H0.991667C0.425 36.975 0 37.4 0 37.9666C0 38.5333 0.425 38.9583 0.991667 38.9583Z" fill="#AD2F2F"/>
<path d="M31.0249 12.325C30.4582 12.325 30.0332 12.75 30.0332 13.3166C30.0332 13.8833 30.4582 14.3083 31.0249 14.3083H38.1082C38.6749 14.3083 39.0999 13.8833 39.0999 13.3166C39.0999 12.75 38.6749 12.325 38.1082 12.325H31.0249Z" fill="#AD2F2F"/>
<path d="M41.0836 7.22494C41.0836 6.65828 40.6586 6.23328 40.092 6.23328H24.792C24.2253 6.23328 23.8003 6.65828 23.8003 7.22494C23.8003 7.79161 24.2253 8.21661 24.792 8.21661H40.092C40.6586 8.21661 41.0836 7.79161 41.0836 7.22494Z" fill="#AD2F2F"/>
<path d="M34.1416 2.12506H43.2083C43.775 2.12506 44.2 1.70006 44.2 1.13339C44.2 0.566724 43.775 0.141724 43.2083 0.141724H34.1416C33.5749 0.141724 33.1499 0.566724 33.1499 1.13339C33.0083 1.55839 33.5749 2.12506 34.1416 2.12506Z" fill="#AD2F2F"/>
<path d="M17.5669 2.125H28.7585C29.3252 2.125 29.7502 1.7 29.7502 1.13333C29.7502 0.425 29.3252 0 28.7585 0H17.5669C17.0002 0 16.5752 0.425 16.5752 0.991667C16.5752 1.55833 17.0002 2.125 17.5669 2.125Z" fill="#AD2F2F"/>
<path d="M37.5417 53.55H28.4751C27.9084 53.55 27.4834 53.9751 27.4834 54.5417C27.4834 55.1084 27.9084 55.5334 28.4751 55.5334H37.5417C38.1084 55.5334 38.5334 55.1084 38.5334 54.5417C38.6751 53.9751 38.1084 53.55 37.5417 53.55Z" fill="#AD2F2F"/>
<path d="M37.8252 60.775C37.8252 61.3417 38.2502 61.7666 38.8169 61.7666H42.7835C43.3502 61.7666 43.7752 61.3417 43.7752 60.775C43.7752 60.2083 43.3502 59.7833 42.7835 59.7833H38.8169C38.2502 59.7833 37.8252 60.2083 37.8252 60.775Z" fill="#AD2F2F"/>
<path d="M33.4334 59.7833H27.4834C26.9167 59.7833 26.4917 60.2083 26.4917 60.775C26.4917 61.3417 26.9167 61.7666 27.4834 61.7666H33.4334C34 61.7666 34.425 61.3417 34.425 60.775C34.425 60.2083 34 59.7833 33.4334 59.7833Z" fill="#AD2F2F"/>
<path d="M48.8752 65.875H35.7002C35.1335 65.875 34.7085 66.3 34.7085 66.8667C34.7085 67.4333 35.1335 67.8583 35.7002 67.8583H48.8752C49.4418 67.8583 49.8668 67.4333 49.8668 66.8667C50.0085 66.4417 49.4418 65.875 48.8752 65.875Z" fill="#AD2F2F"/>
<path d="M30.3167 65.875H24.3667C23.8 65.875 23.375 66.3 23.375 66.8667C23.375 67.4333 23.8 67.8583 24.3667 67.8583H30.3167C30.8833 67.8583 31.3083 67.4333 31.3083 66.8667C31.45 66.4417 30.8833 65.875 30.3167 65.875Z" fill="#AD2F2F"/>
<path d="M67.0086 41.0834H60.917C60.3503 41.0834 59.9253 41.5084 59.9253 42.075C59.9253 42.6417 60.3503 43.0667 60.917 43.0667H66.867C67.4336 43.0667 67.8586 42.6417 67.8586 42.075C68.0003 41.5084 67.5753 41.0834 67.0086 41.0834Z" fill="#AD2F2F"/>
<path d="M67.0085 34.85H53.8335C53.2668 34.85 52.8418 35.275 52.8418 35.8416C52.8418 36.4083 53.2668 36.8333 53.8335 36.8333H67.0085C67.5751 36.8333 68.0001 36.4083 68.0001 35.8416C68.0001 35.275 67.5751 34.85 67.0085 34.85Z" fill="#AD2F2F"/>
<path d="M53.8335 28.6167C53.2668 28.6167 52.8418 29.0417 52.8418 29.6084C52.8418 30.175 53.2668 30.6 53.8335 30.6H58.7918C59.3585 30.6 59.7835 30.175 59.7835 29.6084C59.7835 29.0417 59.3585 28.6167 58.7918 28.6167H53.8335Z" fill="#AD2F2F"/>
<path d="M67.0086 28.6167H64.1753C63.6086 28.6167 63.1836 29.0417 63.1836 29.6084C63.1836 30.175 63.6086 30.6 64.1753 30.6H67.0086C67.5753 30.6 68.0003 30.175 68.0003 29.6084C68.0003 29.1834 67.5753 28.6167 67.0086 28.6167Z" fill="#AD2F2F"/>
</g>
<defs>
<clipPath id="clip0_441_892">
<rect width="68" height="68" fill="white"/>
</clipPath>
</defs>
</svg>
