<svg width="46" height="40" viewBox="0 0 46 40" fill="none" xmlns="http://www.w3.org/2000/svg">
<path fill-rule="evenodd" clip-rule="evenodd" d="M26.3606 28.1809L30.2702 31.9097C30.8166 32.4308 31.1175 33.1237 31.1174 33.8606C31.1174 34.5976 30.8166 35.2905 30.2701 35.8116L27.1425 38.7946C26.3004 39.5978 25.127 40 23.6955 40C22.3491 40 20.7743 39.6443 19.0311 38.9318C15.7889 37.6065 12.2183 35.1742 8.97715 32.0829C5.73602 28.9917 3.18577 25.5862 1.79628 22.494C0.2549 19.0637 0.305994 16.3162 1.94018 14.7576L5.06777 11.7746C6.1957 10.6988 8.03105 10.6988 9.15899 11.7746L13.0685 15.5033C14.1963 16.579 14.1963 18.3295 13.0685 19.4053L11.3508 21.0436C13.405 24.7851 16.6288 27.8598 20.5518 29.8191L22.2694 28.1809C23.3972 27.1052 25.2327 27.1051 26.3606 28.1809ZM25.3969 37.1298L28.5245 34.1468C28.6326 34.0437 28.6489 33.9233 28.6487 33.8606C28.6487 33.7979 28.6325 33.6775 28.5244 33.5744L24.6149 29.8457C24.5068 29.7426 24.3805 29.7272 24.315 29.7272C24.2494 29.7272 24.123 29.7427 24.0149 29.8458L21.0542 32.6696L20.2681 32.3145C15.2211 30.0344 11.1251 26.1277 8.73444 21.3142L8.36205 20.5645L11.3228 17.7406C11.4882 17.5828 11.4882 17.326 11.3228 17.1682L7.41332 13.4395C7.24786 13.2817 6.97865 13.2817 6.81311 13.4395L3.68552 16.4225C2.83864 17.2301 2.98065 19.1532 4.06506 21.5666C5.33385 24.3901 7.69824 27.5336 10.7226 30.4181C13.747 33.3027 17.043 35.5577 20.0034 36.7678C22.534 37.8021 24.5501 37.9374 25.3969 37.1298Z" fill="#AD2F2F"/>
<path fill-rule="evenodd" clip-rule="evenodd" d="M29.7645 0C33.1621 0 36.3649 1.07537 38.7828 3.02799C41.2557 5.02499 42.6175 7.6952 42.6175 10.547C42.6175 13.3987 41.2557 16.0691 38.7828 18.0659C36.3649 20.0185 33.1621 21.0939 29.7645 21.0939C28.5827 21.0939 27.4245 20.9634 26.3146 20.7115C24.0632 21.7267 21.5915 22.3775 18.9847 22.5806C20.1798 21.5257 21.2424 20.3398 22.1512 19.0495C21.659 18.7519 21.1894 18.4237 20.7462 18.0659C18.2735 16.0689 16.9116 13.3987 16.9116 10.547C16.9116 7.6952 18.2735 5.02491 20.7462 3.02799C23.1641 1.07537 26.367 0 29.7645 0ZM19.3993 10.547C19.3993 15.0702 24.0491 18.7502 29.7645 18.7502C35.4799 18.7502 40.1299 15.0702 40.1298 10.547C40.1298 6.02372 35.4799 2.34376 29.7645 2.34376C24.0491 2.34376 19.3993 6.02372 19.3993 10.547Z" fill="#AD2F2F"/>
<ellipse cx="30.1028" cy="10.6452" rx="1.69118" ry="1.6129" fill="#AD2F2F"/>
<ellipse cx="24.6912" cy="10.6452" rx="1.69118" ry="1.6129" fill="#AD2F2F"/>
<ellipse cx="36.1912" cy="10.6452" rx="1.69118" ry="1.6129" fill="#AD2F2F"/>
</svg>
