<svg width="15" height="15" viewBox="0 0 15 15" fill="none" xmlns="http://www.w3.org/2000/svg">
<g clip-path="url(#clip0_551_34)">
<path d="M2.25 2.25C2.325 0.975 3.375 0 4.65 0H11.4C13.425 0 15 1.575 15 3.6V8.1C15 9.375 14.025 10.425 12.75 10.5C12.675 11.775 11.625 12.75 10.35 12.75H6.525L3.75 14.85C3.15 15.3 2.25 14.85 2.25 14.1V12.75C0.975 12.675 0 11.625 0 10.35V4.65C0 3.375 0.975 2.325 2.25 2.25ZM3.375 2.25H10.275C11.625 2.25 12.75 3.375 12.75 4.65V9.3C13.35 9.225 13.875 8.625 13.875 8.025V3.525C13.875 2.175 12.75 1.125 11.475 1.125H4.725C4.05 1.125 3.45 1.65 3.375 2.25ZM2.4 11.625H3.3V13.725L6.075 11.625H10.275C11.025 11.625 11.625 11.025 11.625 10.275V4.65C11.625 3.9 11.025 3.3 10.275 3.3H2.4C1.65 3.3 1.05 3.9 1.05 4.65V10.275C1.125 11.025 1.725 11.625 2.4 11.625Z" fill="#AD2F2F"/>
</g>
<defs>
<clipPath id="clip0_551_34">
<rect width="15" height="15" fill="white"/>
</clipPath>
</defs>
</svg>
