<svg width="36" height="42" viewBox="0 0 36 42" fill="none" xmlns="http://www.w3.org/2000/svg">
<g clip-path="url(#clip0_319_70)">
<path d="M19 4V14" stroke="white" stroke-linecap="round" stroke-linejoin="round"/>
<path d="M13 4V14" stroke="white" stroke-linecap="round" stroke-linejoin="round"/>
<path d="M7 6V14" stroke="white" stroke-linecap="round" stroke-linejoin="round"/>
<path d="M13 6C13 4.3 11.7 3 10 3C8.3 3 7 4.3 7 6" stroke="white" stroke-linecap="round" stroke-linejoin="round"/>
<path d="M19 4C19 2.3 17.7 1 16 1C14.3 1 13 2.3 13 4" stroke="white" stroke-linecap="round" stroke-linejoin="round"/>
<path d="M7 9.00001C7 7.30001 5.7 6.00001 4 6.00001C4 6.00001 3.9 6.00001 3.8 6.00001C2.2 6.10001 1 7.50001 1 9.20001V33.1C1 34.2 1.9 35 3 35C4.1 35 5 35.9 5 37V41H21V36.9C21 35.8 21.9 35 23 35C24.1 35 25 34.1 25 33V32.4C25 30.4 25.7 28.5 27 27L34.2 18.2C35.2 16.9 35 15 33.7 14C33.7 14 33.7 14 33.6 14C32.2 13.1 30.4 13.4 29.4 14.6L25 20.1V6.10001C25 4.50001 23.8 3.10001 22.2 3.00001C20.5 2.90001 19.1 4.20001 19 5.80001C19 5.90001 19 5.90001 19 6.00001" stroke="white" stroke-linecap="round" stroke-linejoin="round"/>
<path d="M1 27H21" stroke="white" stroke-linecap="round" stroke-linejoin="round"/>
<path d="M5 31H25" stroke="white" stroke-linecap="round" stroke-linejoin="round"/>
</g>
<defs>
<clipPath id="clip0_319_70">
<rect width="35.8" height="42" fill="white"/>
</clipPath>
</defs>
</svg>
