<svg width="68" height="68" viewBox="0 0 68 68" fill="none" xmlns="http://www.w3.org/2000/svg">
<path d="M67.7167 6.09167C67.575 5.80833 67.2917 5.66667 66.8667 5.66667H53.8333L54.4 0.991667C54.4 0.708333 54.4 0.425 54.1167 0.141667C54.1167 0.141667 53.8333 0 53.55 0H14.45C14.1667 0 13.8833 0.141667 13.6 0.283333C13.4583 0.566667 13.3167 0.85 13.4583 1.13333L14.025 5.80833H0.991667C0.708333 5.80833 0.425 5.95 0.141667 6.23333C0 6.375 0 6.65833 0 6.94167L1.98333 20.6833C3.25833 28.9 10.0583 34.9917 18.275 35.5583C19.8333 40.9417 24.0833 45.05 29.325 46.6083C29.325 53.6917 24.0833 56.95 22.95 57.6583H22.6667C19.8333 57.6583 17.5667 59.925 17.5667 62.7583V66.8667C17.5667 67.4333 17.9917 67.8583 18.5583 67.8583H49.4417C50.0083 67.8583 50.4333 67.4333 50.4333 66.8667V62.7583C50.4333 59.925 48.1667 57.6583 45.3333 57.6583H45.05C44.0583 57.0917 38.675 53.6917 38.675 46.6083C43.9167 45.05 48.1667 40.8 49.725 35.5583C57.9417 34.9917 64.7417 28.9 66.0167 20.6833L68 6.94167C68 6.65833 68 6.375 67.7167 6.09167ZM4.10833 20.4L2.26667 7.79167H14.3083L17.7083 33.15C17.7083 33.2917 17.7083 33.2917 17.7083 33.4333C10.9083 32.8667 5.1 27.4833 4.10833 20.4ZM48.45 62.9V66.0167H19.55V62.9C19.55 61.2 20.9667 59.7833 22.6667 59.7833H45.3333C47.0333 59.7833 48.45 61.2 48.45 62.9ZM41.65 57.6583H26.35C28.475 55.675 31.1667 52.275 31.3083 47.175C32.1583 47.3167 33.0083 47.4583 34 47.4583C34.85 47.4583 35.8417 47.3167 36.6917 47.175C36.8333 52.4167 39.3833 55.8167 41.65 57.6583ZM34 45.3333C31.3083 45.3333 28.3333 40.8 27.7667 33.0083L26.35 10.3417C26.35 9.775 25.7833 9.35 25.2167 9.35C24.65 9.35 24.225 9.91667 24.225 10.4833L25.6417 33.15C25.925 37.9667 27.2 41.9333 29.1833 44.4833C24.225 42.7833 20.5417 38.3917 19.6917 32.8667L15.5833 2.125H52.4167L48.1667 33.0083C47.175 39.95 41.0833 45.3333 34 45.3333ZM63.8917 20.4C62.9 27.3417 57.0917 32.725 50.15 33.4333C50.15 33.2917 50.15 33.2917 50.15 33.15L53.55 7.79167H65.5917L63.8917 20.4Z" fill="#AD2F2F"/>
</svg>
