<svg width="48" height="49" viewBox="0 0 48 49" fill="none" xmlns="http://www.w3.org/2000/svg">
<g clip-path="url(#clip0_519_857)">
<path d="M27 7.90137V17.9014" stroke="#AD2F2F" stroke-width="2" stroke-linecap="round" stroke-linejoin="round"/>
<path d="M21 7.90137V17.9014" stroke="#AD2F2F" stroke-width="2" stroke-linecap="round" stroke-linejoin="round"/>
<path d="M15 9.90137V17.9014" stroke="#AD2F2F" stroke-width="2" stroke-linecap="round" stroke-linejoin="round"/>
<path d="M21 9.90137C21 9.10572 20.6839 8.34266 20.1213 7.78005C19.5587 7.21744 18.7956 6.90137 18 6.90137C17.2044 6.90137 16.4413 7.21744 15.8787 7.78005C15.3161 8.34266 15 9.10572 15 9.90137" stroke="#AD2F2F" stroke-width="2" stroke-linecap="round" stroke-linejoin="round"/>
<path d="M27 7.90137C27 7.10572 26.6839 6.34266 26.1213 5.78005C25.5587 5.21744 24.7956 4.90137 24 4.90137C23.2044 4.90137 22.4413 5.21744 21.8787 5.78005C21.3161 6.34266 21 7.10572 21 7.90137" stroke="#AD2F2F" stroke-width="2" stroke-linecap="round" stroke-linejoin="round"/>
<path d="M14.9999 12.9012C15.0004 12.4934 14.9179 12.0898 14.7572 11.715C14.5965 11.3402 14.3611 11.0021 14.0654 10.7213C13.7696 10.4405 13.4197 10.223 13.0371 10.082C12.6544 9.94099 12.2471 9.87949 11.8399 9.90124C11.0522 9.96967 10.3202 10.3355 9.79266 10.9243C9.26511 11.5132 8.98163 12.2809 8.99985 13.0712V36.9812C9.02052 37.4977 9.24033 37.9861 9.61319 38.344C9.98604 38.702 10.483 38.9017 10.9999 38.9012C11.5303 38.9012 12.039 39.1119 12.4141 39.487C12.7891 39.8621 12.9999 40.3708 12.9999 40.9012V44.9012H28.9998V40.8212C29.0205 40.3048 29.2403 39.8164 29.6132 39.4585C29.986 39.1005 30.483 38.9008 30.9998 38.9012C31.5303 38.9012 32.039 38.6905 32.4141 38.3155C32.7891 37.9404 32.9998 37.4317 32.9998 36.9012V36.3212C33.0039 34.3348 33.7126 32.4142 34.9998 30.9012L42.1698 22.1512C42.4156 21.8364 42.5961 21.4757 42.7006 21.0902C42.8051 20.7047 42.8316 20.3022 42.7785 19.9064C42.7254 19.5105 42.5938 19.1293 42.3914 18.7849C42.189 18.4406 41.9199 18.1402 41.5998 17.9012C40.9491 17.4554 40.1533 17.2735 39.3735 17.3923C38.5937 17.5111 37.8882 17.9218 37.3999 18.5412L32.9998 24.0412V10.0412C33.0104 9.25598 32.7234 8.49581 32.1967 7.91337C31.6699 7.33093 30.9422 6.96935 30.1598 6.90124C29.7526 6.87949 29.3453 6.94099 28.9626 7.08199C28.58 7.22299 28.2301 7.44051 27.9343 7.72129C27.6386 8.00206 27.4032 8.34018 27.2425 8.71499C27.0818 9.08981 26.9993 9.49344 26.9998 9.90124" stroke="#AD2F2F" stroke-width="2" stroke-linecap="round" stroke-linejoin="round"/>
<path d="M9 30.9014H29" stroke="#AD2F2F" stroke-width="2" stroke-linecap="round" stroke-linejoin="round"/>
<path d="M13 34.9014H33" stroke="#AD2F2F" stroke-width="2" stroke-linecap="round" stroke-linejoin="round"/>
<path d="M330 -281.099H-350V398.901H330V-281.099Z" stroke="black" stroke-width="2" stroke-linecap="round" stroke-linejoin="round"/>
</g>
<defs>
<clipPath id="clip0_519_857">
<rect width="48" height="48" fill="white" transform="translate(0 0.901367)"/>
</clipPath>
</defs>
</svg>
