<svg width="84" height="85" viewBox="0 0 84 85" fill="none" xmlns="http://www.w3.org/2000/svg">
<circle cx="42" cy="42.5889" r="42" fill="#AD2F2F" fill-opacity="0.4"/>
<ellipse cx="42.0006" cy="43.0717" rx="37.2809" ry="37.6552" fill="#AD2F2F" fill-opacity="0.6"/>
<ellipse cx="42" cy="42.5889" rx="30" ry="31" fill="#AD2F2F"/>
<g clip-path="url(#clip0_516_2914)">
<path fill-rule="evenodd" clip-rule="evenodd" d="M44.2031 48.8381L47.3477 51.9143C47.7872 52.3442 48.0293 52.9159 48.0292 53.5238C48.0292 54.1318 47.7872 54.7035 47.3477 55.1334L44.832 57.5944C44.1546 58.257 43.2109 58.5888 42.0594 58.5888C40.9765 58.5888 39.7097 58.2954 38.3076 57.7075C35.6997 56.6142 32.8277 54.6075 30.2207 52.0572C27.6137 49.507 25.5625 46.6975 24.4448 44.1463C23.205 41.3164 23.2461 39.0496 24.5606 37.7639L27.0762 35.3028C27.9835 34.4153 29.4597 34.4153 30.367 35.3028L33.5116 38.379C34.4188 39.2665 34.4188 40.7107 33.5116 41.5982L32.1299 42.9497C33.7823 46.0365 36.3753 48.5732 39.5308 50.1896L40.9123 48.8381C41.8194 47.9506 43.2958 47.9506 44.2031 48.8381ZM43.4279 56.2209L45.9436 53.76C46.0306 53.6749 46.0437 53.5755 46.0435 53.5238C46.0435 53.4721 46.0305 53.3727 45.9435 53.2877L42.799 50.2115C42.712 50.1264 42.6104 50.1138 42.5577 50.1138C42.5049 50.1138 42.4033 50.1265 42.3163 50.2116L39.9349 52.5412L39.3026 52.2483C35.2431 50.3672 31.9484 47.1442 30.0255 43.173L29.726 42.5545L32.1074 40.2248C32.2405 40.0947 32.2405 39.8828 32.1074 39.7526L28.9629 36.6764C28.8298 36.5462 28.6132 36.5462 28.4801 36.6764L25.9644 39.1374C25.2832 39.8037 25.3975 41.3902 26.2697 43.3812C27.2903 45.7106 29.1921 48.304 31.6247 50.6838C34.0574 53.0636 36.7085 54.9239 39.0897 55.9223C41.1252 56.7756 42.7468 56.8871 43.4279 56.2209Z" fill="white"/>
<path fill-rule="evenodd" clip-rule="evenodd" d="M46.9412 25.5889C49.6741 25.5889 52.2502 26.476 54.1951 28.087C56.1841 29.7345 57.2795 31.9374 57.2795 34.2901C57.2795 36.6428 56.1841 38.8459 54.1951 40.4933C52.2502 42.1042 49.6741 42.9913 46.9412 42.9913C45.9906 42.9913 45.059 42.8837 44.1663 42.6759C42.3554 43.5134 40.3673 44.0503 38.2705 44.2179C39.2318 43.3475 40.0864 42.3692 40.8175 41.3047C40.4216 41.0592 40.0438 40.7884 39.6874 40.4933C37.6984 38.8457 36.603 36.6428 36.603 34.2901C36.603 31.9374 37.6984 29.7344 39.6874 28.087C41.6322 26.476 44.2084 25.5889 46.9412 25.5889ZM38.604 34.2901C38.604 38.0218 42.3441 41.0577 46.9412 41.0577C51.5384 41.0577 55.2786 38.0218 55.2785 34.2901C55.2785 30.5584 51.5384 27.5225 46.9412 27.5225C42.3441 27.5225 38.604 30.5584 38.604 34.2901Z" fill="white"/>
<ellipse cx="47.2133" cy="34.3712" rx="1.36029" ry="1.33065" fill="white"/>
<ellipse cx="42.8603" cy="34.3712" rx="1.36029" ry="1.33065" fill="white"/>
<ellipse cx="52.1103" cy="34.3712" rx="1.36029" ry="1.33065" fill="white"/>
</g>
<defs>
<clipPath id="clip0_516_2914">
<rect width="37" height="33" fill="white" transform="translate(23 25.5889)"/>
</clipPath>
</defs>
</svg>
