<svg width="67" height="74" viewBox="0 0 67 74" fill="none" xmlns="http://www.w3.org/2000/svg">
<path d="M58.7801 0H8.21991C3.72222 0 0 3.7 0 8.17083V56.8875C0 61.3583 3.72222 65.0583 8.21991 65.0583H13.6481V72.9208C13.6481 73.3833 13.8032 73.6917 14.2685 73.8458C14.4236 74 14.5787 74 14.7338 74C14.8889 74 15.1991 74 15.3542 73.8458L28.537 65.0583H58.9352C63.4329 65.0583 67.1551 61.3583 67.1551 56.8875V8.17083C67 3.7 63.4329 0 58.7801 0ZM64.8287 56.8875C64.8287 60.125 62.1921 62.9 58.7801 62.9H28.2269C28.0718 62.9 27.7616 62.9 27.6065 63.0542L15.9745 70.9167V63.9792C15.9745 63.3625 15.5093 62.9 14.8889 62.9H8.21991C4.96296 62.9 2.1713 60.2792 2.1713 56.8875V8.17083C2.1713 4.93333 4.80787 2.15833 8.21991 2.15833H58.7801C62.037 2.15833 64.8287 4.77917 64.8287 8.17083V56.8875Z" fill="#AD2F2F"/>
<path d="M57.0739 34.5333C57.8494 33.6083 58.3147 32.375 58.3147 30.8333C58.3147 28.0583 56.1434 25.7458 53.6619 25.7458H41.4096C41.7198 24.05 42.1851 21.4292 41.8749 18.5C41.4096 12.95 38.6179 9.24999 35.2059 9.09582C32.2591 8.94166 31.0184 9.55832 30.7082 9.71249C30.2429 10.0208 30.0878 10.4833 30.2429 10.9458C30.7082 13.4125 31.3286 17.7292 30.8633 19.1167C29.9327 22.2 27.4513 25.1292 25.28 27.75C23.1087 30.525 21.2476 32.5292 21.2476 34.5333V53.8042C21.2476 55.5 22.6434 56.8875 24.3494 56.8875H49.6295C49.7846 56.8875 49.9397 56.8875 49.9397 56.8875C52.7314 56.5792 54.9027 54.2667 54.9027 51.3375C54.9027 50.875 54.9027 50.4125 54.7476 49.95C56.6087 49.025 57.8494 47.175 57.8494 45.0167C57.8494 43.9375 57.5392 43.0125 57.0739 42.0875C58.0045 41.0083 58.4698 39.775 58.4698 38.3875C58.6249 36.5375 58.0045 35.3042 57.0739 34.5333ZM55.0577 40.8542C54.7476 41.0083 54.5925 41.3167 54.5925 41.625C54.5925 41.9333 54.7476 42.2417 54.9027 42.55C55.523 43.1667 55.8332 43.9375 55.8332 44.8625C55.8332 46.4042 54.7476 47.7917 53.1966 48.1C52.8864 48.1 52.5763 48.4083 52.4212 48.7167C52.2661 49.025 52.2661 49.4875 52.4212 49.7958C52.7314 50.2583 52.8864 50.875 52.8864 51.3375C52.8864 53.0333 51.6457 54.4208 49.7846 54.575H49.6295H24.5045C24.0392 54.575 23.5739 54.2667 23.5739 53.65V34.3792C23.5739 33.3 25.28 31.1417 26.986 28.9833C29.3124 26.2083 31.7939 23.125 32.8795 19.5792C33.4999 17.575 32.8795 13.2583 32.4142 11.2542C32.8795 11.1 33.8101 11.1 34.8957 11.1C37.2221 11.2542 39.0832 14.3375 39.3934 18.5C39.7036 22.2 38.9281 25.1292 38.6179 26.3625C38.4628 26.6708 38.6179 27.1333 38.773 27.2875C38.9281 27.5958 39.3934 27.75 39.7036 27.75H53.3517C54.4374 27.75 55.8332 28.9833 55.8332 30.6792C55.8332 32.8375 54.7476 33.4542 54.4374 33.4542C53.817 33.4542 53.3517 33.9167 53.3517 34.5333C53.3517 35.15 53.817 35.6125 54.4374 35.6125C55.0577 35.6125 56.1434 36.3833 56.1434 38.0792C56.4536 39.1583 55.9883 40.2375 55.0577 40.8542Z" fill="#AD2F2F"/>
<path d="M13.4931 32.2208H13.1829C10.8565 32.2208 8.84033 34.0708 8.84033 36.5375V52.4167C8.84033 54.7292 10.7014 56.7333 13.1829 56.7333H13.4931C15.8195 56.7333 17.8357 54.8833 17.8357 52.4167V36.5375C17.6806 34.225 15.8195 32.2208 13.4931 32.2208ZM15.5093 52.4167C15.5093 53.4958 14.5788 54.4208 13.4931 54.4208H13.1829C12.0973 54.4208 11.1667 53.4958 11.1667 52.4167V36.5375C11.1667 35.4583 12.0973 34.5333 13.1829 34.5333H13.4931C14.5788 34.5333 15.5093 35.4583 15.5093 36.5375V52.4167Z" fill="#AD2F2F"/>
</svg>
