<svg width="62" height="62" viewBox="0 0 62 62" fill="none" xmlns="http://www.w3.org/2000/svg">
<g clip-path="url(#clip0_519_851)">
<path d="M25.5986 27.321L47.3571 5.7168L53.7567 12.071" stroke="#AD2F2F" stroke-width="2.21818" stroke-linecap="round" stroke-linejoin="round"/>
<path d="M54.0764 12.2876L51.8877 14.1176L50.9662 16.8245L48.7775 18.6545L47.8688 21.3486L45.6801 23.1913L44.7586 25.8855L42.57 27.7282L41.6612 30.4224L39.4598 32.2651L38.5382 34.9593L36.3624 36.802L35.4281 39.5088L33.2394 41.3516L32.3179 44.0584" stroke="#AD2F2F" stroke-width="2.21818" stroke-linecap="round" stroke-linejoin="round"/>
<path d="M31.998 43.8425L26.8783 38.7591C26.626 38.5089 26.4259 38.2117 26.2893 37.8847C26.1527 37.5576 26.0824 37.207 26.0824 36.8529C26.0824 36.4988 26.1527 36.1482 26.2893 35.8211C26.4259 35.494 26.626 35.1968 26.8783 34.9466V34.9466V28.5924L24.3185 26.0508L21.7587 28.5924L7.67969 42.5716L21.7587 56.5508L33.2779 45.1133L31.998 43.8425Z" stroke="#AD2F2F" stroke-width="2.21818" stroke-linecap="round" stroke-linejoin="round"/>
<path d="M15.3594 41.3008L23.0388 48.9258" stroke="#AD2F2F" stroke-width="2.21818" stroke-linecap="round" stroke-linejoin="round"/>
<path d="M161.269 -98.4912H-709.07V765.675H161.269V-98.4912Z" stroke="black" stroke-width="0.871429" stroke-linecap="round" stroke-linejoin="round"/>
</g>
<defs>
<clipPath id="clip0_519_851">
<rect width="61.4357" height="61" fill="white" transform="translate(0 0.633789)"/>
</clipPath>
</defs>
</svg>
