<svg width="37" height="31" viewBox="0 0 37 31" fill="none" xmlns="http://www.w3.org/2000/svg">
<path fill-rule="evenodd" clip-rule="evenodd" d="M34.3474 0C35.1209 0 35.7944 0.301351 36.244 0.848702C36.7614 1.47824 36.9332 2.3795 36.7282 3.3867L31.6225 28.4799C31.3111 30.0107 30.2418 31 28.8991 31H28.8988C28.2115 30.9997 27.508 30.7369 26.8634 30.2394L26.848 30.2273L26.7929 30.1832L26.7919 30.1825L26.791 30.1818L20.9921 25.5343L16.9941 29.1983C16.3178 29.8178 15.5452 30.1454 14.7596 30.1454C13.5137 30.1454 12.444 29.3029 11.9673 27.9465L8.47181 17.9975L2.00818 16.1564C1.99807 16.1536 1.98796 16.1505 1.97785 16.1474C0.291025 15.6132 0.0149431 14.6846 0.000619489 14.1786C-0.0137042 13.6726 0.209015 12.73 1.8627 12.1018L33.0237 0.262214C33.4815 0.0880571 33.9269 0 34.3474 0ZM23.1041 11.3068L10.6338 17.6478L13.5802 26.0339L15.0775 19.9973C15.1218 19.8181 15.212 19.6535 15.3392 19.519L23.1041 11.3068ZM15.5328 27.6188C15.4811 27.6661 15.4291 27.7083 15.3772 27.7472L16.7663 22.1473L19.2932 24.1726L15.5328 27.6188ZM29.5086 28.0539L34.6143 2.96041C34.7047 2.51509 34.6317 2.27776 34.5744 2.20815C34.5309 2.15475 34.4135 2.14693 34.3475 2.14693C34.2399 2.14693 34.0562 2.16789 33.793 2.26797L2.64157 14.104L9.19311 15.9696L27.6617 6.57857C28.1287 6.34096 28.6997 6.47235 29.0148 6.88999C29.3297 7.30763 29.2971 7.88993 28.9376 8.27011L17.7087 20.1461L21.6185 23.2798C21.6196 23.2803 21.6207 23.2812 21.6216 23.282L28.1925 28.5481C28.4489 28.7446 28.6994 28.8528 28.8988 28.8528C29.3024 28.8528 29.4594 28.294 29.5086 28.0539Z" fill="#AD2F2F"/>
</svg>
